<svg xmlns="http://www.w3.org/2000/svg" version="1.1" xmlns:xlink="http://www.w3.org/1999/xlink" width="1000" height="1000"><style>
    #light-icon {
      display: inline;
    }
    #dark-icon {
      display: none;
    }

    @media (prefers-color-scheme: dark) {
      #light-icon {
        display: none;
      }
      #dark-icon {
        display: inline;
      }
    }
  </style><g id="light-icon"><svg xmlns="http://www.w3.org/2000/svg" version="1.1" xmlns:xlink="http://www.w3.org/1999/xlink" width="1000" height="1000"><g clip-path="url(#SvgjsClipPath1411)"><rect width="1000" height="1000" fill="#ffffff"></rect><g transform="matrix(7.03125,0,0,7.03125,50,50)"><svg xmlns="http://www.w3.org/2000/svg" version="1.1" xmlns:xlink="http://www.w3.org/1999/xlink" width="128" height="128"><svg xmlns="http://www.w3.org/2000/svg" width="128" height="128" viewBox="0 0 64 64" fill="none">
  <!-- Słońce -->
  <circle cx="18" cy="18" r="8" fill="#FFD93B"></circle>
  <g stroke="#FFD93B" stroke-width="2">
    <line x1="18" y1="4" x2="18" y2="0"></line>
    <line x1="18" y1="36" x2="18" y2="32"></line>
    <line x1="4" y1="18" x2="0" y2="18"></line>
    <line x1="36" y1="18" x2="32" y2="18"></line>
    <line x1="6.93" y1="6.93" x2="3.76" y2="3.76"></line>
    <line x1="29.07" y1="6.93" x2="32.24" y2="3.76"></line>
    <line x1="6.93" y1="29.07" x2="3.76" y2="32.24"></line>
    <line x1="29.07" y1="29.07" x2="32.24" y2="32.24"></line>
  </g>

  <!-- Chmurka -->
  <path d="M40 30c-1.5-4.5-5.8-7.5-10.6-7.5-5.4 0-10 4-10.9 9.1A8 8 0 0 0 16 48h22a8 8 0 0 0 2-15.6Z" fill="#4D9DE0"></path>
</svg></svg></g></g><defs><clipPath id="SvgjsClipPath1411"><rect width="1000" height="1000" x="0" y="0" rx="450" ry="450"></rect></clipPath></defs></svg></g><g id="dark-icon"><svg xmlns="http://www.w3.org/2000/svg" version="1.1" xmlns:xlink="http://www.w3.org/1999/xlink" width="1000" height="1000"><g><g transform="matrix(7.8125,0,0,7.8125,0,0)" style="filter: contrast(1) brightness(1)"><svg xmlns="http://www.w3.org/2000/svg" version="1.1" xmlns:xlink="http://www.w3.org/1999/xlink" width="128" height="128"><svg xmlns="http://www.w3.org/2000/svg" width="128" height="128" viewBox="0 0 64 64" fill="none">
  <!-- Słońce -->
  <circle cx="18" cy="18" r="8" fill="#FFD93B"></circle>
  <g stroke="#FFD93B" stroke-width="2">
    <line x1="18" y1="4" x2="18" y2="0"></line>
    <line x1="18" y1="36" x2="18" y2="32"></line>
    <line x1="4" y1="18" x2="0" y2="18"></line>
    <line x1="36" y1="18" x2="32" y2="18"></line>
    <line x1="6.93" y1="6.93" x2="3.76" y2="3.76"></line>
    <line x1="29.07" y1="6.93" x2="32.24" y2="3.76"></line>
    <line x1="6.93" y1="29.07" x2="3.76" y2="32.24"></line>
    <line x1="29.07" y1="29.07" x2="32.24" y2="32.24"></line>
  </g>

  <!-- Chmurka -->
  <path d="M40 30c-1.5-4.5-5.8-7.5-10.6-7.5-5.4 0-10 4-10.9 9.1A8 8 0 0 0 16 48h22a8 8 0 0 0 2-15.6Z" fill="#4D9DE0"></path>
</svg></svg></g></g></svg></g></svg>